<?xml version="1.0" encoding="utf-8"?>
<!-- Generator: Adobe Illustrator 27.3.1, SVG Export Plug-In . SVG Version: 6.00 Build 0)  -->
<svg version="1.1" id="Layer_1" xmlns="http://www.w3.org/2000/svg" xmlns:xlink="http://www.w3.org/1999/xlink" x="0px" y="0px"
	 viewBox="0 0 1366 768" style="enable-background:new 0 0 1366 768;" xml:space="preserve">
<g>
	<path d="M589.35,410.04l-1.92-25.5c-0.39-5.2-0.59-8.62-0.59-10.27c0-4.76,0.68-9.13,2.03-13.13c1.36-4,3.76-8.29,7.21-12.87
		c-4.11,0-8.29,0.99-12.56,2.96c-4.26,1.97-7.39,4.25-9.37,6.82s-2.97,5.16-2.97,7.77c0,1.2,0.36,2.47,1.08,3.8
		c0.93,1.69,1.39,2.98,1.39,3.86c0,0.81-0.24,1.46-0.73,1.96s-1.12,0.74-1.88,0.74c-1.12,0-2.09-0.58-2.93-1.74
		c-1.05-1.55-1.57-3.46-1.57-5.75c0-4.29,1.62-8.42,4.85-12.39c3.23-3.97,7.66-6.91,13.28-8.81c3.62-1.23,8.89-2.07,15.81-2.53
		c1.86-0.14,3.76-0.32,5.69-0.53c-4.75,6.96-7.85,12.77-9.29,17.43c-1.44,4.66-2.16,10.98-2.16,18.96c0,6.12,0.32,11.71,0.95,16.78
		l10.14-10.82l8.66-8.86c8.73-8.96,14.61-16.03,17.63-21.2c2.29-3.9,3.43-7.45,3.43-10.65c0-1.76-0.4-3.69-1.21-5.8
		c-0.53-1.34-0.79-2.35-0.79-3.06c0-0.95,0.36-1.77,1.08-2.48c0.72-0.7,1.57-1.05,2.56-1.05c1.34,0,2.46,0.69,3.38,2.06
		c0.91,1.37,1.37,3.52,1.37,6.43c0,2.85-0.6,5.86-1.79,9.04c-1.2,3.18-3.71,7.23-7.55,12.16c-3.84,4.92-9.76,11.44-17.79,19.56
		C606.36,391.41,597.89,400.46,589.35,410.04z"/>
	<path d="M635.46,375.8l-2.32-1.79c3.51-3.87,6.72-6.62,9.61-8.25c2.9-1.63,5.36-2.45,7.4-2.45c1.12,0,1.98,0.25,2.58,0.74
		c0.6,0.49,0.9,1.16,0.9,2c0,1.02-1.14,5.34-3.42,12.97c-3.72,12.48-5.57,20-5.57,22.57c0,0.49,0.12,0.91,0.37,1.24
		c0.25,0.33,0.51,0.5,0.79,0.5c1.12,0,4.01-2.18,8.65-6.54l2.06,2c-4.82,4.54-8.33,7.44-10.55,8.7s-4.03,1.9-5.43,1.9
		c-1.23,0-2.21-0.39-2.93-1.16c-0.72-0.77-1.08-1.85-1.08-3.22c0-4.39,2.64-15.13,7.91-32.22c0.25-0.81,0.37-1.53,0.37-2.16
		c0-0.7-0.32-1.05-0.95-1.05c-0.7,0-1.5,0.28-2.4,0.84C640.55,370.98,638.56,372.77,635.46,375.8z M656.19,340.89
		c1.09,0,1.99,0.36,2.69,1.08c0.7,0.72,1.05,1.64,1.05,2.77c0,1.55-0.54,2.91-1.61,4.09c-1.07,1.18-2.28,1.77-3.61,1.77
		c-1.05,0-1.93-0.37-2.64-1.11c-0.7-0.74-1.05-1.7-1.05-2.9c0-1.58,0.51-2.93,1.53-4.03C653.57,341.44,654.78,340.89,656.19,340.89z
		"/>
	<path d="M682.82,363.56c3.13,0,5.55,0.61,7.25,1.82s2.56,2.61,2.56,4.19c0,0.95-0.36,1.78-1.08,2.48c-0.72,0.7-1.59,1.05-2.61,1.05
		c-0.67,0-1.25-0.15-1.74-0.45c-0.49-0.3-1.2-1.05-2.11-2.24c-1.72-2.28-3.43-3.43-5.12-3.43c-1.44,0-2.72,0.55-3.82,1.66
		c-1.11,1.11-1.66,2.48-1.66,4.13c0,1.44,0.35,2.84,1.05,4.19c0.7,1.35,2.48,3.54,5.33,6.56c3.9,4.14,5.85,8.08,5.85,11.8
		c0,3.72-1.58,6.98-4.75,9.77s-7.24,4.19-12.23,4.19c-4.18,0-7.3-0.85-9.33-2.56c-2.04-1.71-3.06-3.8-3.06-6.3
		c0-1.23,0.39-2.25,1.16-3.06c0.77-0.81,1.72-1.21,2.85-1.21c0.98,0,1.83,0.33,2.53,0.98c0.7,0.65,1.05,1.42,1.05,2.29
		c0,0.35-0.02,0.81-0.07,1.37c-0.02,0.46-0.04,0.84-0.04,1.16c0,1.16,0.49,2.15,1.47,2.95c0.95,0.81,2.24,1.21,3.89,1.21
		c1.89,0,3.56-0.33,4.99-0.97c1.44-0.65,2.56-1.63,3.36-2.95c0.81-1.32,1.21-2.62,1.21-3.92c0-1.26-0.38-2.53-1.13-3.79
		c-0.76-1.26-2.45-3.35-5.09-6.27c-3.66-4.07-5.48-7.99-5.48-11.75c0-3.44,1.39-6.45,4.17-9.03
		C674.99,364.85,678.53,363.56,682.82,363.56z"/>
	<path d="M729.84,364.93h7.51l-4.96,18.43c-2.92,10.7-4.38,16.79-4.38,18.27c0,0.67,0.16,1.18,0.47,1.53
		c0.32,0.35,0.67,0.53,1.05,0.53c0.6,0,1.3-0.26,2.11-0.79c1.16-0.81,3.36-2.85,6.59-6.12l1.74,1.95
		c-7.07,7.35-12.27,11.02-15.61,11.02c-1.13,0-2.08-0.43-2.87-1.29s-1.19-2.08-1.19-3.67c0-1.83,0.38-4.27,1.14-7.33
		c-3.13,3.59-6.99,6.73-11.59,9.44c-3.06,1.79-5.71,2.69-7.96,2.69c-1.23,0-2.2-0.41-2.9-1.21c-0.7-0.81-1.05-2.1-1.05-3.86
		c0-1.37,0.16-2.85,0.47-4.44c0.46-2.22,1.62-6.67,3.48-13.36c2.35-8.48,3.53-13.57,3.53-15.26c0-0.99-0.35-1.48-1.05-1.48
		c-0.63,0-1.5,0.33-2.58,0.98c-1.09,0.65-2.95,2.22-5.59,4.72l-2.32-1.85c4.71-4.22,8.31-6.99,10.78-8.31s4.47-1.98,5.99-1.98
		c0.84,0,1.53,0.31,2.06,0.92c0.53,0.62,0.79,1.58,0.79,2.88c0,2.43-1.27,8.4-3.8,17.9c-2.25,8.55-3.38,13.43-3.38,14.63
		c0,0.74,0.24,1.37,0.71,1.9c0.47,0.53,0.99,0.79,1.56,0.79c1.96,0,4.76-1.63,8.38-4.88s5.99-6.95,7.11-11.1L729.84,364.93z"/>
	<path d="M779.85,362.67l3.48-0.74l-3.96,13.34c-1.58,5.31-3.08,11.43-4.48,18.35c-0.77,3.76-1.16,6.19-1.16,7.28
		c0,1.09,0.44,1.63,1.32,1.63c0.56,0,1.46-0.37,2.69-1.11c2.18-1.3,4.27-2.92,6.28-4.85l1.69,2.06c-4.01,3.66-6.58,5.87-7.7,6.64
		c-2.25,1.55-4.4,2.69-6.43,3.43c-1.34,0.49-2.64,0.74-3.9,0.74c-0.92,0-1.6-0.21-2.06-0.63c-0.46-0.42-0.69-1.04-0.69-1.85
		c0-0.53,0.14-1.25,0.42-2.16l2.11-7.17c-3.02,3.62-6.63,6.73-10.81,9.33c-2.57,1.62-4.92,2.43-7.07,2.43
		c-2.04,0-3.6-0.72-4.69-2.16c-1.48-1.93-2.21-4.46-2.21-7.59c0-3.73,0.99-7.87,2.98-12.45c1.99-4.57,4.65-8.72,7.99-12.45
		c3.34-3.73,6.86-6.47,10.55-8.23c2.85-1.34,6.5-2,10.97-2c1.12,0,2.27,0.07,3.43,0.21L779.85,362.67z M773.31,370.73
		c-1.9-0.39-3.5-0.58-4.8-0.58c-3.16,0-5.92,0.87-8.28,2.61c-2.36,1.74-4.54,4.87-6.57,9.39c-2.02,4.52-3.03,9.03-3.03,13.53
		c0,2.39,0.4,4.11,1.21,5.17c0.81,1.05,1.86,1.58,3.16,1.58c2.43,0,5.03-1.31,7.8-3.93c2.78-2.62,4.82-6.39,6.12-11.31
		L773.31,370.73z"/>
	<path d="M811.17,395.2l1.79,1.9c-2.74,3.09-5.99,5.92-9.73,8.46s-6.83,3.82-9.25,3.82c-1.09,0-1.99-0.41-2.69-1.24
		c-0.7-0.83-1.05-1.96-1.05-3.4c0-2.81,1.09-8.65,3.27-17.51l5.69-23.15c2.07-8.37,3.81-13.97,5.21-16.82
		c2.18-4.31,5.26-7.65,9.24-10.03c3.98-2.38,8.19-3.57,12.61-3.57c1.51,0,2.69,0.36,3.55,1.09c0.86,0.73,1.29,1.6,1.29,2.63
		c0,1.13-0.42,2.06-1.26,2.79c-0.84,0.73-2.07,1.09-3.68,1.09c-1.05,0-2.54-0.18-4.47-0.53c-1.68-0.28-3.24-0.42-4.68-0.42
		c-1.44,0-2.52,0.3-3.26,0.89c-1.02,0.84-1.94,2.61-2.76,5.3c-0.82,2.69-2.16,8.01-4.02,15.95l-5.26,22.1
		c-2.6,11.07-3.9,16.86-3.9,17.35c0,1.13,0.4,1.69,1.21,1.69c0.77,0,1.9-0.46,3.38-1.37C805.33,400.39,808.25,398.05,811.17,395.2z"
		/>
</g>
</svg>
